<?xml version="1.0" encoding="UTF-8"?><svg id="Layer_1" width="190" height="63" xmlns="http://www.w3.org/2000/svg" viewBox="0 0 1000 364.23"><defs><style>.cls-1{fill:#f9a51a;}.cls-2{fill:#003663;}.cls-3{fill:#d71921;}.cls-4{fill:#0061a1;}.cls-5{fill:#008b44;}</style></defs><g><path class="cls-3" d="m285.66,78.53v186.64H99.02V78.53c51.54,0,93.32,41.62,93.32,92.96,0-24.98,9.89-47.67,25.99-64.36,16.97-17.63,40.86-28.6,67.32-28.6Z"/><path class="cls-4" d="m818.79,78.53v40.27c-18.43-24.32-49.21-40.27-84.09-40.27h-.2v186.64h102.35v-40.27c18.43,24.32,49.21,40.27,84.09,40.27h.2V78.53h-102.35Z"/><path class="cls-1" d="m522.67,135.66v5.08c0,34.36,27.22,62.21,60.8,62.21h-60.8v62.21h130.81c30.84,0,55.83-25.58,55.83-57.13v-10.17c0-31.55-25-57.13-55.83-57.13h55.83v-62.21h-130.81c-30.84,0-55.83,25.58-55.83,57.13Z"/><path class="cls-5" d="m470.26,199.18c16.83,16.89,27.23,40.22,27.23,65.99h-186.65V78.53h.19c25.69,0,49.16,8.64,67.12,22.92,6.42,5.1,12.14,10.93,17,17.34v-40.26h102.34c0,51.54-41.62,93.3-92.96,93.3,25.66,0,48.92,10.44,65.73,27.34Z"/></g><g><path class="cls-2" d="m98.56,362.92v-59.62h10.1l19.71,39.58,19.71-39.58h10.1v59.62h-10.52v-35.61l-17.31,35.61h-3.97l-17.31-35.61v35.61h-10.52Z"/><path class="cls-2" d="m166.37,362.92v-59.62h11.26v27.49l22.69-27.49h13.75l-24.92,29.4,26.5,30.22h-14.24l-23.77-27.16v27.16h-11.26Z"/><path class="cls-2" d="m236.79,364.16c-4.42,0-8.4-.78-11.95-2.34s-6.46-3.79-8.74-6.71c-2.28-2.91-3.72-6.38-4.33-10.41l11.76-1.74c.83,3.42,2.54,6.06,5.13,7.91,2.59,1.85,5.55,2.77,8.86,2.77,1.85,0,3.64-.29,5.38-.87,1.74-.58,3.17-1.44,4.29-2.57s1.68-2.53,1.68-4.18c0-.61-.09-1.19-.27-1.76-.18-.56-.48-1.1-.89-1.59s-1-.97-1.76-1.41-1.72-.84-2.88-1.2l-15.48-4.55c-1.16-.33-2.5-.8-4.04-1.41-1.53-.61-3.02-1.48-4.45-2.61-1.44-1.13-2.63-2.63-3.58-4.49-.95-1.86-1.43-4.22-1.43-7.06,0-4,1.01-7.33,3.02-9.98s4.71-4.62,8.07-5.92c3.37-1.3,7.09-1.93,11.18-1.9,4.11.06,7.78.76,11.01,2.11,3.23,1.35,5.93,3.32,8.12,5.9,2.18,2.58,3.75,5.73,4.72,9.46l-12.17,2.07c-.44-1.93-1.26-3.56-2.44-4.89-1.19-1.32-2.6-2.33-4.24-3.02-1.64-.69-3.36-1.06-5.15-1.12-1.77-.05-3.43.19-4.99.72-1.56.54-2.83,1.32-3.81,2.34-.98,1.02-1.47,2.24-1.47,3.64,0,1.3.4,2.35,1.2,3.17.8.82,1.81,1.47,3.02,1.97,1.21.5,2.46.91,3.73,1.24l10.35,2.82c1.55.41,3.26.96,5.13,1.64,1.88.68,3.68,1.61,5.4,2.82,1.72,1.2,3.15,2.78,4.26,4.74,1.12,1.96,1.68,4.44,1.68,7.45,0,3.2-.67,6-2.01,8.38-1.34,2.39-3.14,4.36-5.4,5.92s-4.82,2.73-7.68,3.5c-2.86.77-5.8,1.16-8.84,1.16Z"/><path class="cls-2" d="m278.86,364.16c-3.2,0-5.91-.62-8.14-1.84-2.22-1.23-3.91-2.87-5.05-4.93-1.15-2.06-1.72-4.33-1.72-6.81,0-2.07.32-3.96.95-5.67s1.66-3.22,3.08-4.53,3.33-2.41,5.73-3.29c1.66-.61,3.63-1.14,5.92-1.61,2.29-.47,4.89-.92,7.78-1.35,2.9-.43,6.09-.9,9.56-1.43l-4.06,2.24c0-2.65-.64-4.6-1.9-5.84-1.27-1.24-3.4-1.86-6.38-1.86-1.66,0-3.38.4-5.18,1.2-1.79.8-3.05,2.22-3.77,4.26l-10.19-3.23c1.13-3.7,3.26-6.71,6.38-9.03,3.12-2.32,7.37-3.48,12.75-3.48,3.95,0,7.45.61,10.52,1.82,3.06,1.22,5.38,3.31,6.96,6.29.88,1.66,1.41,3.31,1.57,4.97.17,1.66.25,3.51.25,5.55v27.33h-9.85v-9.19l1.41,1.9c-2.18,3.01-4.53,5.18-7.06,6.52-2.53,1.34-5.72,2.01-9.59,2.01Zm2.4-8.86c2.07,0,3.82-.37,5.24-1.1s2.55-1.57,3.4-2.5c.84-.94,1.41-1.72,1.72-2.36.58-1.21.92-2.63,1.01-4.24s.14-2.96.14-4.04l3.31.83c-3.34.55-6.05,1.01-8.12,1.39s-3.74.71-5.01,1.01-2.39.63-3.35.99c-1.1.44-1.99.92-2.67,1.43-.68.51-1.17,1.07-1.49,1.68-.32.61-.48,1.28-.48,2.03,0,1.02.25,1.9.77,2.63.51.73,1.23,1.29,2.17,1.68.94.39,2.06.58,3.35.58Z"/><path class="cls-2" d="m307.68,326.9v-8.69h28.65v8.69h-28.65Zm7.04,36.02v-44.55c0-1.13.03-2.41.08-3.85s.28-2.88.68-4.35c.4-1.46,1.14-2.79,2.22-3.97,1.38-1.55,2.88-2.6,4.49-3.17,1.61-.57,3.18-.87,4.7-.91,1.52-.04,2.82-.06,3.89-.06h5.55v9.11h-5.13c-1.77,0-3.08.45-3.93,1.35-.86.9-1.28,1.97-1.28,3.21v47.2h-11.26Z"/><path class="cls-2" d="m360.57,364.16c-4.58,0-8.62-.99-12.11-2.96-3.49-1.97-6.22-4.69-8.2-8.16-1.97-3.46-2.96-7.43-2.96-11.9,0-4.89.97-9.14,2.9-12.75,1.93-3.62,4.6-6.42,7.99-8.43,3.4-2,7.3-3,11.72-3,4.69,0,8.68,1.1,11.97,3.31,3.28,2.21,5.71,5.31,7.29,9.32,1.57,4,2.13,8.71,1.66,14.12h-11.14v-4.14c0-4.55-.72-7.83-2.17-9.83-1.45-2-3.82-3-7.1-3-3.84,0-6.66,1.17-8.47,3.5-1.81,2.33-2.71,5.78-2.71,10.33,0,4.17.9,7.39,2.71,9.67,1.81,2.28,4.46,3.42,7.97,3.42,2.21,0,4.1-.48,5.67-1.45,1.57-.97,2.77-2.36,3.6-4.18l11.26,3.23c-1.68,4.09-4.34,7.26-7.97,9.52-3.63,2.26-7.6,3.4-11.9,3.4Zm-14.82-20.45v-8.36h29.64v8.36h-29.64Z"/><path class="cls-2" d="m387.02,362.92v-59.62h11.43l25.92,39.75v-39.75h11.43v59.62h-11.43l-25.92-39.75v39.75h-11.43Z"/><path class="cls-2" d="m465.07,364.16c-4.58,0-8.62-.99-12.11-2.96-3.49-1.97-6.22-4.69-8.2-8.16-1.97-3.46-2.96-7.43-2.96-11.9,0-4.89.97-9.14,2.9-12.75,1.93-3.62,4.6-6.42,7.99-8.43,3.4-2,7.3-3,11.72-3,4.69,0,8.68,1.1,11.97,3.31,3.28,2.21,5.71,5.31,7.29,9.32,1.57,4,2.13,8.71,1.66,14.12h-11.14v-4.14c0-4.55-.72-7.83-2.17-9.83-1.45-2-3.82-3-7.1-3-3.84,0-6.66,1.17-8.47,3.5-1.81,2.33-2.71,5.78-2.71,10.33,0,4.17.9,7.39,2.71,9.67,1.81,2.28,4.46,3.42,7.97,3.42,2.21,0,4.1-.48,5.67-1.45,1.57-.97,2.77-2.36,3.6-4.18l11.26,3.23c-1.68,4.09-4.34,7.26-7.97,9.52-3.63,2.26-7.6,3.4-11.9,3.4Zm-14.82-20.45v-8.36h29.64v8.36h-29.64Z"/><path class="cls-2" d="m486.71,326.9v-8.69h31.8v8.69h-31.8Zm31.8,36.02c-3.09.58-6.12.83-9.09.77-2.97-.07-5.62-.59-7.95-1.57s-4.11-2.56-5.32-4.74c-1.1-2.04-1.68-4.12-1.74-6.23-.06-2.11-.08-4.51-.08-7.18v-38.17h11.26v37.51c0,1.74.02,3.31.06,4.7s.32,2.5.85,3.33c.99,1.57,2.58,2.43,4.76,2.57,2.18.14,4.6.03,7.25-.33v9.36Z"/></g><path class="cls-2" d="m59.62,0C38.05,0,20.49,16.89,20.49,37.66v274.36c-11.67,2.34-20.49,12.67-20.49,25.02,0,14.08,11.45,25.53,25.53,25.53s25.53-11.45,25.53-25.53c0-12.35-8.82-22.68-20.49-25.02V37.66c0-15.21,13.04-27.59,29.06-27.59h930.31v296c0,15.21-13.04,27.59-29.06,27.59h-336.42c-2.34-11.67-12.67-20.49-25.02-20.49-14.08,0-25.53,11.45-25.53,25.53s11.45,25.53,25.53,25.53c12.35,0,22.68-8.82,25.02-20.49h336.42c21.58,0,39.13-16.89,39.13-37.66V0H59.62Z"/></svg>